<?xml version="1.0" encoding="UTF-8"?>
<svg id="Capa_2" data-name="Capa 2" xmlns="http://www.w3.org/2000/svg" width="189.72" height="261.05" viewBox="0 0 189.72 261.05">
  <defs>
    <style>
      .cls-1 {
        fill: #794d3b;
      }
    </style>
  </defs>
  <g id="Capa_1-2" data-name="Capa 1">
    <g id="_1" data-name="1">
      <path class="cls-1" d="M108.36,261.02l-25.83.03-.31-11.82-44.4-.2-.16-11.43-14.43-.28-.07-13.03-11.96-.1-.06-31.93h41.27s.37,10.42.37,10.42l11.22.16.36,10.45c3.4,1.02,6.6.34,10.4.58l.02,21.81c3.7-.4,6.66-.54,10.05.89l-.06-54.68-11.1-.14-.35-18.54-16.49.51-.16,9.35-32.5.15-.21-27.32,9.94-.16c.62-3.35.72-6.48-.05-9.97l-33.84-.05.03-24.92,10.37-.27.37-8.53,12.15-.09c.43-2.87.46-5.25-.03-8.25h-12.07s-.11-7.92-.11-7.92l-10.61-.29-.04-25.36,33.96.05.37-11.72-10.27-.15-.14-31.29h32.64s.1,10.91.1,10.91c6.65-1.9,9.31,4.07,16.68,2.08l.18-20.29,9.11-.59.14-9.1,24.41.16.25,9,8.79.19.22,19.81c2.15,2.32,8.05,1.63,10.15-1.15l6.8.07.15-11.16,33.33.23-.1,30.74-10.96.1v12.19s33.8,0,33.8,0v24.93s-10.57.21-10.57.21l-.41,8.4-10.96.13c-.49,2.8-.47,5.19,0,7.82l10.99.13.36,8.65,10.58.23.02,25.03h-33.8s-.07,10.06-.07,10.06l10.99.12.06,27.27-33.37.02-.1-9.59-16.92-.14-.09,18.32-10.96.17-.1,54.22c3.09.26,6.06.24,9.62-.38l.51-21.95,10.06-.16.13-10.87,11.11-.09.4-10.47,41.62-.08.02,31.85-11.61.28-.23,12.92-13.58.2-.29,11.77h-44.82s.07,11.81.07,11.81ZM116.44,145.8l.22-10.87,16.61-.38.1-13.13,11.12-.39-.02-47-11.03-.19-.19-13.2-16.84-.18-.12-12.1-42.45.13-.07,12.16-16.95.19-.11,12.96-10.97.19v47.01s10.96.63,10.96.63l.15,13.16,16.62.05.22,11,42.76-.02Z"/>
      <path class="cls-1" d="M124.01,121.74l-11.14.13v11.8s-13.92-.25-13.92-.25l-.19-11.6h-11.07s-.08,11.17-.08,11.17l-11.98.17-.02-11.36-10.02.02-.11-10.81-8.56-.17-.03-8.96,10.63-.02c-.49,3.11-.75,5.53-.39,8.57,3.11.28,5.46.19,8.75-.57-.8-4.17.82-7.03,1.54-11.77-2.08,2.99-5.23,4.62-8.6,2.81.32-2.35.4-4.61,1.64-6.42.61-.89,2.82-1.01,4.18-.88l-.08-7.68c-1.69-.23-5.01-.64-6.36.64-1.8,1.71-.88,5.31-.77,7.69l-10.28.13-.23-9.49,8.03-.09.31-11.54,10.02-.06-.04-12.45,12.54.13.09,11.23,10.75.44v-11.84s14.12.19,14.12.19l.09,12.13,11.62.58.16,11.18c3.24-.03,5.81-.27,8.58.48v8.17s-10.39.34-10.39.34c.46-2.19.83-5.69-.99-7.09-2.21-1.69-6.24-1.15-9.04-.79-.65,1.93-1.19,5.11,0,6.78,1.47,2.05,5.12,2.3,7.67,2.56.53,2.22.41,4.09,0,6.62l-8.56-.03-.2,9.03-12.25-.95c-.91,3.76-.28,7.44-.22,11.44l12.24-.03.24-10.5,10.03-.06.78-8.39c3.5-.68,6.96-.46,10.69-.11l.11,10.6c-2.76.65-5.31.46-8.79.23l-.52,8.63ZM112.13,73.11l-12.88.07.07,12.05,12.88-.07-.07-12.05ZM85.7,85.36l-.15-11.48-10.29-.19-.03,11.79,9.94.23c.09-.25.34-.36.53-.34ZM85.44,86.56c-.18,2.52-.39,5.09.94,7.91,3.62-.7,6.76.03,9.81,2.17-2.94,4.04-6.12,6.84-10.68,6.75-.97,2.28-1.41,4.08-1.05,6.44-2.52.63-4.79.5-7.9.1-1.03,3.55-.9,6.93-.71,11.02l9.71-.13-.15-9.49,12.01-1.67c1.39-1.94.08-6.25-1.72-7.3,5.88-3.27,12.93-1.27,12.5-5.24s-5.65-5.24-9.63-4.25c0-2.82.6-4.98-.25-7.52l-11.85.08-1.03,1.11Z"/>
    </g>
  </g>
</svg>