<?xml version="1.0" encoding="UTF-8"?>
<svg id="Capa_2" data-name="Capa 2" xmlns="http://www.w3.org/2000/svg" width="200.29" height="205" viewBox="0 0 200.29 205">
  <defs>
    <style>
      .cls-1 {
        fill: #794d3b;
      }
    </style>
  </defs>
  <g id="Capa_1-2" data-name="Capa 1">
    <path id="_10" data-name="10" class="cls-1" d="M142.52,192.42l-.27,12.58-85.77-.04-.18-12.45-14.88-.12-.27-46.89,12.07-.17v-13.1s-43.11-.04-43.11-.04l.16-8.65-10.22-.15-.04-50.65,10.29-.14.08-14.14,12.06-.65.15-10.07c.05-3.44,1.39-6.46.57-10.39l15.18-.36.15-12.48,13.48-.24.27-12.45,13.06-.11.05-11.6,65.92-.1.08,11.75,15.17.41.15,12.08,11.59.31.05,12.3,11.41.35-.09,8.65,8.51-.15-.21,12.45,11.52.48.16,13.99,10.66.18.06,50.58-11.08.08-.36,8.74-42.52.06.2,12.84,11.7.41-.13,46.7-15.58.23ZM107.24,68.44l.13-9.8,9.63-.06-.09-21.34-9.25-.06-.15-10.06-21.06.16-.19,9.49-10.01.24v21.55s10.22.15,10.22.15l.34,9.9,20.42-.15ZM160.83,111.09l.17-8.58,8.98-.29-.07-18.95-8.99-.23.15-8.55-18.79-.12-.03,9.19-9.14.12.12,17.97c3.19.68,5.68.44,9.11.24l.19,9.48,18.31-.28ZM52.95,111.22l.04-8.64,8.31-.06.02-13.8-8.18-.06-.15-8.24-16.75-.43-.44,8.93-8.6-.17.05,13.51,8.91.26.25,8.88,16.54-.18ZM69.21,151.31l-.03,25.45,16.6.02.03-25.45-16.6-.02ZM130.57,176.52l-.06-25.07-16.89.06.56,25.03,16.38-.03Z"/>
  </g>
</svg>