<?xml version="1.0" encoding="UTF-8"?>
<svg id="Capa_2" data-name="Capa 2" xmlns="http://www.w3.org/2000/svg" width="233.52" height="197.88" viewBox="0 0 233.52 197.88">
  <defs>
    <style>
      .cls-1 {
        fill: #794d3b;
      }
    </style>
  </defs>
  <g id="Capa_1-2" data-name="Capa 1">
    <path id="_13" data-name="13" class="cls-1" d="M109.43,59.98l-.05-25.28-11.06-.12-.51-17.97-12.18-.27.02-16.11,15.45-.23.26,14.54,9.37.12.16,19.83,11.89-.03.16-19.59,10.23-.35.08-14.45,14.96-.06.02,16.37-11.95.19-.54,17.99-11.7.56.05,24.65,15.54.39.26-13.28,10.49-.31.11-8.92,12.95-.05v-8.24s13.06-.15,13.06-.15l.21-11.55,44.83-.03.37,11.46,11.53.38.05,69.49-11.61.71-.19,12.99-11.28.11-.15,12-32.23.18c-.67,2.03-.69,4.04,0,6.09h20.84s.44,11.3.44,11.3l11.01.29-.17,42.94-11.5.13-.13,12.1-43.06.04v-12.19s-12.27-.18-12.27-.18l-.1-18.51c-3.61-.7-6.81-.6-10.57-.35l-.2,12.66-16.82-.72c-5.03-.22-9.82,1-14.88-.06l.25-11.55-10.5-.28-.16,18.89-12.31.32-.37,11.86-42.38.16-.35-12.34-11.36-.13.06-32.82c2.63-2.92,2.57-6.5,1.19-10.11l9.97-.08.05-11.03,21.23-.45c.43-1.8.39-3.25.22-5.75H23.54s-.09-12-.09-12l-11.8-.59-.08-13.19-11.5-.35-.08-69.61,11.28-.37.4-11.42,44.44.07.76,11.32,14.01.25c-.14,3.33-.56,5.83.22,8.79l10.13-.17.3,8.67,11.56.26.16,13.16,15.67.19.53-.24ZM36.49,60.42l19.59.34v-10.66s-7.76-.22-7.76-.22c-.24-.71-.68-3.37-1.76-3.36l-16.43.28c-.9,2.16-2.44,4.07-5.84,2.98l-.13,26.15,5.98.68c.27,2.51,1.66,2.88,2.95,3.08,5.76.88.65-9.14,3.4-19.28ZM197.97,79.6c2.39.2,3.74-.13,4.04-.52s-.05-1.46-.13-2.4l8.07-.75-.14-26.11c-3.38,1.07-4.9-1.18-5.92-2.92l-18.36-.57c-.82,1.32-.94,2.26-1.29,3.83l-6.87.19.14,9.95,20.21.05.26,19.23ZM110.17,60.28l-.66.75c-.27,3.23.77,6.32-.76,10.05-1.47-.59-6.89-.15-6.89,1.9l-.27,84.4c0,1.77.69,5.3,1.99,5.85l6.99.54.53,8.26c4.07.64,7.77.18,12.06-.14l.32-8.44c2.6.22,4.66-.07,6.04-1.42,1.55-1.51,2.12-2.95,2.11-5.62l-.03-83.94c-2.29-1.68-4.9-1.93-8.04-2.07l-.09-10.05-13.3-.08ZM45.75,92.45l.54-10.46c-3.36-.81-6.13-.64-9.54-.18-.29,3.85-.53,7.36.18,11.14,3.18.38,5.99.59,8.81-.5ZM70.58,98.12l.21-12.56-5.04-4.44-13.14.58c-1.39.06-3.5,3.4-3.55,4.96l-.45,13.86c7.03,5.79,21.87,4.25,21.98-2.4ZM184.02,101.39c2.06-2.38,2.61-14.79-1.43-20.03l-14.98.02-4.21,4.16-.17,14.75c4.49,4.99,17.71,4.67,20.79,1.11ZM198.31,92.94c.3-4.46-.05-7.59-.79-11.51l-10.31.51,1.28,11.14,9.83-.14ZM66.99,166.49l-.17-2.23,2.11-1.45c.86-2.68.35-6.08.36-9.26-2.91-.06-3.8-2.37-4.32-4.5-3.58-.26-8.32-.91-11.84.33-1.87.66-3.35,3.63-6.68,3.17l.23,14.7c.95,1.16,3.52,2.52,2.98,5.38h15.49c-.18-2.9,1.99-4.31,1.85-6.15ZM183.74,172.42l3.34-6.01.24-12.77-5.96-3.89c-3.11-.82-7.76-1.31-10.55.18l-5.91,3.15c-3.63,8.57,2.46,11.16,1.56,14.52-1.65,6.18,7.35,6.24,17.29,4.82Z"/>
  </g>
</svg>