<?xml version="1.0" encoding="UTF-8"?>
<svg id="Capa_2" data-name="Capa 2" xmlns="http://www.w3.org/2000/svg" width="219.93" height="178.4" viewBox="0 0 219.93 178.4">
  <defs>
    <style>
      .cls-1 {
        fill: #794d3b;
      }
    </style>
  </defs>
  <g id="Capa_1-2" data-name="Capa 1">
    <path id="_15" data-name="15" class="cls-1" d="M210.44,147.84l-10.22.2-.22,10.24-11.83.4-.41,10.87-25.16-.66-.27,9.49-103.86.04-.29-9.88-24.94.82.04-10.38-12.68-.41-.29-10.58-10.49-.43-.05-12.03-9.62-.32-.16-52.24,9.53-.13.18-13.59,8.83.3c3.2-3.25-.5-6.74-.53-9.6l-.37-30.89.75-8.84,8.43.03.35-10.31,8.88-.33.32-9.6,35.9.04.24,9.22c2.86.82,5.64.42,9.31.45l.47,10.29,9.18.19.26,15.48h36.16s.26-15.52.26-15.52l9.22-.17c.83-3.59.4-6.73.32-10.12l9.97-.37.14-9.32L183.91,0l.02,9.49,8.79.27.38,10.21,9.28.22-.27,38.8c-.02,3.29-2.35,6.48-.76,10.24l9.01-.08.17,13.65,9.41.04-.09,52.66-9.4.37v12ZM57.56,37l11.23.76c.68-3.1.68-5.56.38-8.48-1.66-.26-2.69-.43-3.96-1.05v-7.18s-21.77.15-21.77.15l-.37,7.27-4.54.8-.15,32.63,13.6.03-.22-21.83c-.02-2.04,3.83-3.23,5.81-3.1ZM168.54,61.85h13.38s-.1-32.31-.1-32.31l-5.48-.68-.08-7.9-19.93.02-.1,7.18-5.26.55.19,9.08c5.92-.7,10.96-1.01,16.79-.23,1.35,7.95,1.03,15.49.59,24.29ZM68.06,48.17l-.08-7.55c-2.64-.83-4.97-1.04-7.28-.7l.03,8.57c2.72.34,5.11.45,7.32-.32ZM159.9,48.42l-.11-8.31c-1.16-.35-5.01-.52-5.54.8-1.02,2.55-.44,5.2-.54,7.48,2.17.65,4.03.7,6.19.03ZM160.07,91.72l-12.07-.26v8.65s-9.85.18-9.85.18l-.36,10.07c-4.1-1.7-7.31.54-10.54.54h-32.93s-11.2-.35-11.2-.35l.1-10.39-11.16.03c.1-3.27.47-5.8-.18-8.71l-12.06-.04.06,11.98,10.31.48v8.06s11.85.05,11.85.05l.37,10.95,55.83-.09.16-10.66,11.91-.24v-7.95s9.75-.45,9.75-.45c.47-3.94.55-7.5.02-11.88Z"/>
  </g>
</svg>