<?xml version="1.0" encoding="UTF-8"?>
<svg id="Capa_2" data-name="Capa 2" xmlns="http://www.w3.org/2000/svg" width="186.86" height="200.94" viewBox="0 0 186.86 200.94">
  <defs>
    <style>
      .cls-1 {
        fill: #794d3b;
      }
    </style>
  </defs>
  <g id="Capa_1-2" data-name="Capa 1">
    <path id="_3" data-name="3" class="cls-1" d="M136.13,182.63v18.32s-84.09,0-84.09,0l-.12-17.99,18.31.02-.03-28.77-18.81.23-28.95.41-.22-13.2-11.61-.19.07-7.88-10.48-.09-.19-51.32,10.14-.18.22-10.96,13.14-.27c1.42-3.3-.51-6.44-.54-9.64l-.26-27.11,13.26-.5.18-10.54,15.62-.51.21-7.29,10.58-.31.28-14.86,65.02.04.08,15.08h9.63s.19,7.42.19,7.42l19.2.12v10.55c2.3.86,4.06.53,6.72.37l-.17,21.32c-.02,3.05-2.43,6.17-.66,9.08l16.89.13.16,9.14c2.48.06,4.26-.15,6.81.51l.13,47.41c.01,4.07-1.12,7.75.02,12.07l-10.02.22-.09,8.66-7.83.17-.37,12.59-37.5-.15c-4.41-.02-8.48-1.28-13.11-.43l.19,28.38c6.05.4,10.84.23,18-.03ZM80.25,70.36v-17.38s-18.09.05-18.09.05c-.13,6.33.13,11.65.37,17.7l17.72-.37ZM137.92,52.87h-18.1v17.9h18.1v-17.9ZM110.71,88.69h-17.84v18.15h17.84v-18.15ZM45.32,97.92h-18.23v19.07h18.23v-19.07ZM140.95,106.84l-.07,17.7,17.9.07.07-17.7-17.9-.07ZM82.87,133.96l-12.06.02.04,20.04,12.06-.02-.04-20.04ZM117.46,134.74l-12.81.06.09,19.28,12.81-.06-.09-19.28Z"/>
  </g>
</svg>