<?xml version="1.0" encoding="UTF-8"?>
<svg id="Capa_2" data-name="Capa 2" xmlns="http://www.w3.org/2000/svg" width="233.41" height="183.97" viewBox="0 0 233.41 183.97">
  <defs>
    <style>
      .cls-1 {
        fill: #794d3b;
      }
    </style>
  </defs>
  <g id="Capa_1-2" data-name="Capa 1">
    <path id="_4" data-name="4" class="cls-1" d="M233.41,148.9l-18.01-.04c-3.4,0-6.55-.88-10.21.09l-.15,12.6h-9.05s-.42,11.23-.42,11.23l-17.67-.14-.48,11.28-120.88.07-.24-11.14-17.91-.05-.29-11.34-10.01-.1-.24-12.8-27.85.28.06-13.37,19.78-.11.11-12.95-19.85.18v-12.89s19.92-.13,19.92-.13l.21-32.47,10.46-.14.29-8.84c.03-.84,2.05-.77,3.17-.62L33.94.03l18.67-.03.39,10.42,12.2.13.27,10.85,10.49.43.47,11.18h80.98s.39-11.45.39-11.45l10.28-.12.18-10.58,11.48-.56.56-10.25,18.61.05-.05,67.19,4.52.84.18,8.8,9.6-.19.28,32.62,19.91.45.04,12.38-19.94.46v12.58s19.66.27,19.66.27l.3,13.4ZM73.03,35.32c-3.5.34-6.42.62-8.9-.28-.03-1.04-.14-2.24-.72-2.43l-2.48-.83c-1.81-.6-1.7-3.24-1.89-5.25-.2-2.19-5.73-2.34-5.74-.74l-.1,29.92,10.06-.13.21-10.21,9.99-.19c.35-3.53.57-6.5-.42-9.87ZM169.96,45.71l-.06,9.9,10-.14-.06-29.6c0-1.49-3.58-1.47-4.66-.79-.93.58-.64,2.93-1.59,4.07l-4.58,5.46c-1.51,1.8-5.69.64-8.1.74-.63,3.65-.54,6.75.06,10.18l8.99.18ZM70.24,123.57c2.92.04,5.89-2.23,5.75-5.53-.25-5.99,1.01-12.62-.41-18.05-2.95-4.09-15.82-3.87-19.52-.41l-.74,20.54c-.06,1.57,2.71,3.28,3.92,3.3l10.99.16ZM173.5,123.37c3.23,0,5.13-2.2,5.13-5.3v-15.14c0-3.15-1.69-6.01-5.11-5.96l-11.04.15c-2.03.03-3.72,2.04-4.41,3.84l-.02,18.12c.97,2.78,3.38,4.29,6.35,4.29h9.1ZM123.66,136.42l-.13-13.73-13.15-.04-.3,14.78-12.9.06.17,11.34,12.89-.03.24-11.55,12.37.07.82-.9ZM123.51,137.14l-.07,11.74,13.22.08.07-11.74-13.22-.08Z"/>
  </g>
</svg>