<?xml version="1.0" encoding="UTF-8"?>
<svg id="Capa_2" data-name="Capa 2" xmlns="http://www.w3.org/2000/svg" width="176.23" height="167.22" viewBox="0 0 176.23 167.22">
  <defs>
    <style>
      .cls-1 {
        fill: #794d3b;
      }
    </style>
  </defs>
  <g id="Capa_1-2" data-name="Capa 1">
    <path id="_6" data-name="6" class="cls-1" d="M83.83,123.54l.08-39.96-9.16-.24c-.75-2.85-.39-5.61.02-9.09H26.15s-.14-11.04-.14-11.04l-13.13-.07-.11-11.58-12.77-.11V.14S51.92.02,51.92.02l.11,14.48,11.58.36.22,12.61,10.76.38.32,11.62,8.77.42.22,24.47,10.23.03c.78-4.03.34-8.13.31-12.34l-.08-12.22,8.6-.36.35-11.65,10.92-.44.09-12.47,12.56-.41.41-14.49,48.93.09-.22,51.36-12.11.12-.12,11.18-12.96.48-.2,10.96-48.68.1c1.12,4.56.87,8.24-2.29,10.96l.26,38.24,12.61.34.43,9.29,17.97.26.14,8.11,7.76.06.15,11.88,18.49.33-.14,13.47H14.92s-.22-13.47-.22-13.47l19.45-.32.16-10.98,5.47-.14.19-8.96,24.01-.1.39-9.42,19.46-.28Z"/>
  </g>
</svg>