<?xml version="1.0" encoding="UTF-8"?>
<svg id="Capa_2" data-name="Capa 2" xmlns="http://www.w3.org/2000/svg" width="185.87" height="203.29" viewBox="0 0 185.87 203.29">
  <defs>
    <style>
      .cls-1 {
        fill: #794d3b;
      }
    </style>
  </defs>
  <g id="Capa_1-2" data-name="Capa 1">
    <path id="_9" data-name="9" class="cls-1" d="M153.68,189.59l.21,13.7H34.23s-.17-13.61-.17-13.61l20.67-.17.03-36.12-31.97-.12-.33-10.31-11.7-.38-.32-11.64-10.45-.45.18-49.84,9.7-.09.13-12.98,20.65-.08.07,13.15,8.77.38.26,32.2,15.14-.1-.16-92.74,10.09-.74.48-10.65,7.01,2.31L73.04.05l40.19-.05.32,10.87c.08,2.88,10.66-3.77,10.82-.37l.45,9.22,8.55.39-.03,92.85,13.21.09v-45.73s9.36-.28,9.36-.28l.03-10.61,20.37.02.25,10.84,9.26.19.06,64.52-9.8.47.17,10.32-11.18.19-.32,10.17-31.5.04.07,36.41h20.36ZM101.71,26.48l-16.31.03.03,15.95,16.31-.03-.03-15.95ZM101.72,87.47v-16.77s-16.54.18-16.54.18v16.42s16.54.18,16.54.18ZM101.67,115.44l-16.28.06.06,16.27,16.28-.06-.06-16.27ZM85.44,159.25v16.14h16.32v-16.14h-16.32Z"/>
  </g>
</svg>