<?xml version="1.0" encoding="UTF-8"?>
<svg id="Capa_2" data-name="Capa 2" xmlns="http://www.w3.org/2000/svg" width="156.51" height="201.99" viewBox="0 0 156.51 201.99">
  <defs>
    <style>
      .cls-1 {
        fill: #794d3b;
      }
    </style>
  </defs>
  <g id="Capa_2-2" data-name="Capa 2">
    <path class="cls-1" d="M104.33,201.98h-52.1s.01-9.92.01-9.92h-22.18s0-10.6,0-10.6h-10.43s.02-10.13.02-10.13h-9.98s.04-18.41.04-18.41H0s0-60.16,0-60.16l9.66-.03.06-19.19,9.86-.08v-19.95s10-.03,10-.03v-21.23s9.97-.05,9.97-.05l.03-10.75,9.92-.04.07-10.6,9.93-.03L59.53,0h37.52s0,10.78,0,10.78l9.89.02v10.6s10.05,0,10.05,0v10.77s9.9.06,9.9.06v21.22s10,.04,10,.04v20s9.88.04,9.88.04l.03,19.19,9.69.03v60.14s-9.69.05-9.69.05l-.04,18.4h-9.87s-.01,10.11-.01,10.11l-10.36.03-.04,10.58h-22.14s-.02,9.93-.02,9.93ZM53.9,78.39l.04-16.65h16.16s0-19.28,0-19.28l-16.17.02v19.25s-10.94,0-10.94,0v16.76s10.91-.11,10.91-.11ZM120.39,102.99h-14.13v14.98h14.13v-14.98ZM86.43,131.28v14.57s13.79,0,13.79,0v-14.57s-13.79,0-13.79,0ZM106.27,147.75v14.6s14.15,0,14.15,0v-14.6s-14.15,0-14.15,0Z"/>
  </g>
</svg>