<?xml version="1.0" encoding="UTF-8"?>
<svg id="Capa_2" data-name="Capa 2" xmlns="http://www.w3.org/2000/svg" width="186.86" height="137.46" viewBox="0 0 186.86 137.46">
  <defs>
    <style>
      .cls-1 {
        fill: #794d3b;
      }
    </style>
  </defs>
  <g id="Capa_2-2" data-name="Capa 2">
    <g>
      <path class="cls-1" d="M8.44,93.4l-8.44-.1.02-46.53,8.36-.07.08-10.07h40.24s.03-7.48.03-7.48l8.57-.03.08-7.2,8.4-.02.07-6.98,8,.02.05-7.48h7.74s.02-7.44.02-7.44l17.16.03v137.43s-17.12,0-17.12,0l-.05-7.07-7.77-.04-.04-7.37-8.05-.04v-6.92s-8.43-.01-8.43-.01v-7.02s-8.62,0-8.62,0v-7.02s-40.22-.02-40.22-.02l-.06-8.54ZM81.57,86.34v15.58s7.86-.01,7.86-.01V36.71s-7.86,0-7.86,0v16.47s-7.73.02-7.73.02v33.04s7.74.1,7.74.1ZM31.86,52.69h-14.84s0,34.39,0,34.39h14.84s0-34.39,0-34.39Z"/>
      <g>
        <polygon class="cls-1" points="162.95 128.21 149.4 128.28 149.39 117.34 156.9 117.32 156.95 110.58 164.8 110.55 164.81 96.19 172.43 96.15 172.43 42.69 164.82 42.71 164.79 28.1 156.95 28.07 156.92 21.46 149.38 21.4 149.41 9.77 162.92 9.75 162.93 18.51 171.69 18.56 171.7 26.28 179.35 26.35 179.35 41.23 186.83 41.33 186.86 97.61 179.37 97.64 179.35 112.35 171.71 112.34 171.69 119.68 162.95 119.69 162.95 128.21"/>
        <polygon class="cls-1" points="140.95 112.33 129.84 112.34 129.83 100.74 136.73 100.7 136.75 93.83 143.41 93.8 143.44 45.2 136.74 45.16 136.75 38.17 129.83 38.19 129.88 26.33 140.91 26.33 140.98 34.5 148.43 34.52 148.45 42.68 156.15 42.77 156.15 96.19 148.48 96.21 148.45 104.12 140.96 104.14 140.95 112.33"/>
        <polygon class="cls-1" points="122.49 95.01 112.07 95.02 112.13 83.93 118.74 83.95 118.75 54.76 112.07 54.74 112.08 43.93 122.45 43.92 122.49 52.41 129.87 52.49 129.86 86.36 122.47 86.44 122.49 95.01"/>
      </g>
    </g>
  </g>
</svg>