<?xml version="1.0" encoding="UTF-8"?>
<svg id="Capa_2" data-name="Capa 2" xmlns="http://www.w3.org/2000/svg" width="225" height="201.99" viewBox="0 0 225 201.99">
  <defs>
    <style>
      .cls-1 {
        fill: #794d3b;
      }
    </style>
  </defs>
  <g id="Capa_1-2" data-name="Capa 1">
    <path id="_11" data-name="11" class="cls-1" d="M112.44,187.85c3.9-1.07,7.47-.46,11.72-.54l-.08-15.03-31.55-.16-.31,15.29,10.06.07.35,14.36h-22.99s-.3-9.29-.3-9.29c-1.7-.26-2.76-.25-4.08-.07v9.2s-12.65.18-12.65.18l-.1-14.37,12.56-.11.31-15.41,6.61-.43v-9.12s-18.42.07-18.42.07l-.23-11.16-11.76-.28-.08-10.02-9.37-.41-.18-8.14-8.86-.06-.02-17.05-9.8-.34-.06-43.14-9.48.03-.51-6.29-13.24-.09v-16.91s13.28-.1,13.28-.1l.52-7.47,9.41-.24v-16.34s11.58-.44,11.58-.44l-.17-13.07,15.66-.12.29-10.89,43.07.02.21,10.89,13.08.15-.05,10.79,11.16.24,4.47,38.96,19.98.16.23,7.9,10.98.84-.07,8.21,8.72.41.55,9.95,10.03.29.13,10.63h10.5s.36,11.09.36,11.09h41.03s.03,19.14.03,19.14l-11.21.33.08,10.46-10.66.11-.19,10.57-15.03.13-.21,11.09-20.31.13.28,9.05-26.65.05v15.78s11.73-.01,11.73-.01l.04,14.41-24.24.21-.54-9.22c-.36-.46-2.45-.11-2.46.29l-.27,8.61-12.86.16-.06-13.98ZM61.5,64.06c4.92,0,7.65-2.23,7.56-6.49l-.34-15.57c-4.93-1.61-10.13-1.42-15.33.02l-.03,18.44c0,3.66,4.99,3.6,8.14,3.6ZM183.67,130.5l-.38-9.84-17.14.07-.04,9.1h-41.97s-.06-10.24-.06-10.24l-11.05-.07-.36-9.31-12.19.36.38,9.78,8.97.2.14,10.03,10.75.36.24,9.74,46.56-.02v-9.75s16.13-.41,16.13-.41Z"/>
  </g>
</svg>