<?xml version="1.0" encoding="UTF-8"?>
<svg id="Capa_2" data-name="Capa 2" xmlns="http://www.w3.org/2000/svg" width="231.23" height="173.02" viewBox="0 0 231.23 173.02">
  <defs>
    <style>
      .cls-1 {
        fill: #794d3b;
      }
    </style>
  </defs>
  <g id="Capa_1-2" data-name="Capa 1">
    <path id="_12" data-name="12" class="cls-1" d="M162.97,128.09l-9.04.03-.33,11.5-11.67.19-.42,8.67-9.02.34-.13,24.17-46.04.04-.04-11.46-28.01-.22-.17-10.35h-23.81s-.04-10.99-.04-10.99l-12.71-.36-.37-9.7-9.86-.72.06-12.38-11.11-.24-.25-47.29,11.18-.09.36-10.72,9.64-.4.31-10.48,11.33-.1.7-10.89,16.71-.34.36-10.52,24.3.46-.73-13.25,16.68-.5.32-10.02,41.21-2.47.14,36.24,10.65.24.12,10.8,10.85.19v10.91s8.98-.1,8.98-.1l.2,11.04,11.72-.12.21-10.97,9.7-.11-.02-10.67,11.35-.12.26-10.84,34.69-.03-.11,40.56-10.28.16-.63,11.92-11.09.09v9.86s11.19.17,11.19.17l.57,11.5,10.31.16.06,40.17-34.55.03-.16-11.33-11.54.02.06-11.63c-3.52.77-6.35.85-10,.65l-.02-9.83-12.2-.14.16,9.23ZM86.35,139.04v-10.74s10.35-.17,10.35-.17V60.28s-10.39-.34-10.39-.34l-.12-10.89-9.16.21-.03,17.77c3.41-.29,6.03-.7,8.81.01l-.05,54.55c-3.09.58-5.45,0-8.9-.62v18.1c3.44.46,6.13.55,9.48-.04ZM52.26,98.8l-.39-20.43c-4.89-1.32-10.51-1.36-15.24.01l-.42,15.82c-.05,2.05.08,4.02,1.34,5.06,1.72,1.42,10.19,1.83,14.71-.46Z"/>
  </g>
</svg>