<?xml version="1.0" encoding="UTF-8"?>
<svg id="Capa_2" data-name="Capa 2" xmlns="http://www.w3.org/2000/svg" width="231.87" height="183.55" viewBox="0 0 231.87 183.55">
  <defs>
    <style>
      .cls-1 {
        fill: #794d3b;
      }
    </style>
  </defs>
  <g id="Capa_1-2" data-name="Capa 1">
    <path id="_14" data-name="14" class="cls-1" d="M57.99,108.48l-.24-8.02-8.54-.23.28-24.06,10.49-.2.29-10.5,28.29-.17c.33,1.55.67,3.01,1.42,3.3,1.09.42,3.34.31,5.17.08,1.05,2.45.5,4.78.54,7.28l7.04.28.07,8.07c0,.86,2.58,1.46,4.19,1.25l.02,32.67-9.8.08-.18,14.92-10.31.12v11.53s-48.77.13-48.77.13l-.08-7.91c-3.36-.85-6.31-.44-9.65-.23l-.31-8.73h-9.94s.08-14.45.08-14.45l-9.53-.48.07-47.85,9.32-.18.05-16.09,8.91-.2.08-9.68c2.09.72,5.29,1.52,6.97-.47-.24-1.66-3.06-4.12-2.77-6.64l16.38-.69.3-9.56,59.93-.06.25,9.74,13.8.4.22,8.33,7.26.49-.02,7.94,9.41.44.3,22.71,8.1-.32.06,45.76-9.98.32-.17,18.68-9.2.06-.09,8.96c-2.23.72-4.38.43-7.42.36l-.28,11.28,7.83-.03-.03-7.74,9.13-.12.33-11.41,10.8-.2.1-18.9,8.66-.38-.29-39.98-.18-16.29,7.48-.09-.02-15.68,8.77-.38-.21-25.2c-2.44.39-7.16.94-7.92-.98-2.39-6-1.07-12.73-.09-19.44l18.34-.13c1.69,7.41,1.72,14.45.2,21.54l-.55,20.16h21.62s-.12-17.54-.12-17.54c-1.34-8.01-2.04-15.72.23-24.07l18.24-.08c1.43,7.05,1.63,13.52.49,20.05-2.82.86-4.96.65-7.92.55l-.3,24.81,8.15.63-.02,16.1,9.11.28.07,65.36-9.9.17-.48,24.82c-3.18-.22-5.93-.66-8.46,1.04,1.22,3.72.73,6.84-2.71,8.19l.04,9.28-19.9.26-.37,11.98-139.12-.13-17.21-.1-33.76.19.04-14.83,19.02-.21v-10.38s8.89-.15,8.89-.15l.24-9.4,14.9.02-.03,8.95,43.71.09.15-11.38,10.95.09.12-10.02,9.74-.11v-17.8s9.86-.24,9.86-.24l.06-41.92-9.92-.28-.09-10.61-11.13-.06-.23-10.69-36.24.24-.22,10.3-10.52.39-.32,10.45-10.52.32c.72,6.8-1.2,14.05.68,20.54,1.05,3.63,3.12,6.65,1.24,11.6l12.1.16.28,9.57,24.02-.05.19-9.05,9.64-.39.44-15.53c.08-2.69-.26-4.27-1.76-5.98-2.76-3.14-15.45-3-17.81,2.36-.99,2.27-.05,5.81-.25,8.5l9.51.14-.04,10.19-18.72.12ZM171.77,72.78l-.02,15.28h11.38s.02-15.27.02-15.27h-11.38ZM215.71,72.76h-11.99s0,15.34,0,15.34h11.99s0-15.34,0-15.34Z"/>
  </g>
</svg>