<?xml version="1.0" encoding="UTF-8"?>
<svg id="Capa_2" data-name="Capa 2" xmlns="http://www.w3.org/2000/svg" width="181.23" height="232.84" viewBox="0 0 181.23 232.84">
  <defs>
    <style>
      .cls-1 {
        fill: #794d3b;
      }
    </style>
  </defs>
  <g id="Capa_1-2" data-name="Capa 1">
    <path id="_16" data-name="16" class="cls-1" d="M181.23,194.17l-10.32.34-.24,15.9-10.32.12-.33,11.63-17.13-.08-.5,10.67-103.68.08-.24-10.49-17.76.1-.13-11.95-9.8-.13-.02-15.9-10.75-.29.04-52.35,10.55-.44.18-19.84,9.84-.17.08-10.76,8.15-.18.29-8.38c-2.94-.88-5.35-.5-8.4-.65l-.06-20.03-9.77-.22V19.66c1.66-.13,9.41-.04,9.41-.04,0,0,.36-5.08.42-7.91l7.12-.03.33-11.53,25.89-.05.14,12.02,9.55.3.15,8.31,10.8.04-.02,70.81,32.22-1.17.04-69.01,9.43-.59.53-8.63,9.31.12.34-12.02,25.93-.29.1,11.69,7.59.13.15,8.11c.02.83,10.55.31,10.55.31l-.02,61.18-10.74.12-.15,20.21-9.09.24c-.54,2.91-.45,5.51-.26,8.35h9.31s.34,11.03.34,11.03l10.39.25.27,19.47,10.18.23.13,52.85ZM53.21,96.95l.21-55.14-4.89-1.05-.21-9.88-16.1.32.26,49.66,10.1.1.24,16.13,10.38-.15ZM137.76,80.95l9.72-.34-.38-45.72-13.86-1.09-.49,6.88s-2.86.48-4.75.21l-.18,56.22,9.66.12.27-16.28ZM51.83,176.4c1.56-1.18,2.27-2.65,2.27-4.21v-18.37c-4.84-4.7-16.45-4.85-18.23.87l.18,17.13c.02,2.04,1.45,4.41,3.58,4.44l12.21.14ZM144.72,172.43l-.2-17.61c-.06-5.54-17-5.48-17.41.06-.46,6.22-.86,13.68.28,19.65,5.61,3.26,17.4,3.44,17.34-2.1ZM95.72,189.92l.05-14.14-11.01-.05-.15,14.46-10.89.19.25,10.76,10.61.02.12-10.67,10.09-.36c.3-.01.59-.06.92-.21ZM96.05,190.41l-.1.83.12,9.64,10.77.1-.13-10.69-10.66.12Z"/>
  </g>
</svg>