<?xml version="1.0" encoding="UTF-8"?>
<svg id="Capa_2" data-name="Capa 2" xmlns="http://www.w3.org/2000/svg" width="181.62" height="240.83" viewBox="0 0 181.62 240.83">
  <defs>
    <style>
      .cls-1 {
        fill: #794d3b;
      }
    </style>
  </defs>
  <g id="Capa_1-2" data-name="Capa 1">
    <g id="_2" data-name="2">
      <path class="cls-1" d="M121.54,240.41c-14.1-1.97-26.31,1.77-40.47-.15-7.26-.98-14.19-.56-21.57-.05l-.12-12.03-34.72-.08.11-11.5-12.44-.37-.14-13.25-11.24-.34-.27-16.39c-.08-4.79,1.61-8.92.67-14.43,4.58.54,8.02-.53,12.13-.57l25.69-.27-.02,10.72,11.9.22-.07,9.87,9.17.32.25,9.75,9.98.09.03,16.18,10.19-.2.45-35.09.33-28.54c-2.78-.69-5.16-.68-7.69-.08v8.72s-34.85.11-34.85.11l-.1-9.05-12.15-.47.15-31.8,12.2-.36.03-8.82-27.69-.2-.16-11.07-11.02-.74-.1-38.34,10.53-.18.09-12.77,8.4-.38,2.44-2.89,24.48-.14.31,8.77,13.52.2c.64-2.04.56-3.94.33-6.24l-5.99-.48-.12-32.7c2.25.16,4.2.13,5.68-.13,1.01-.18.86-3.46,1.86-3.5l8.88-.37.07-11.34,39.92-.05.14,11.2,8.76.09,1.28,3.96,6.73.17.07,32.91c-2.01-.02-4.16-.04-4.94.77-1.05,1.1-.74,5.4.66,5.41l13.41.1.11-8.53,24.65-.16,2.12,3.29,7.28.05.12,12.53c3.67.42,6.9.29,10.76-.18l.06,38.93-10.84.2-.4,11.57-28.01.06c-.49,3.06-.48,5.79-.07,8.88l13.1.1-.11,32.19-12.12.48-.26,9.08-35.49.2-.15-9c-2.38-.65-4.37-.8-6.87-.21l.31,29.73.45,34.2,9.12-.05.18-15.95,10.08-.61c.75-3.21.27-5.77.24-8.72,2.91-1.06,5.41-.79,8.45-.58l.21-10.07,12.16-.37.24-10.12,23.6-.66c5.07-.14,9.68,1.64,15.34.81l-.04,31.07-11.16.3-.19,13.16-12.18.14-.41,11.58-35.07.24-.2,12.19ZM100.45,120.95l.14-9.59,6.64-.18.16-10.03,12.56-.27.03-21.2-12.85-.16.36-9.12-6.86-.21-.16-9.51-19.14.1-.04,9.42-7.68.12c-.34,3.27.49,5.75,1.02,9.01l-13.2.3v21.44s11.88.23,11.88.23l.14,9.95,7.85.05.13,9.74,19.02-.09ZM84.33,135.72v16.64s12.84,0,12.84,0v-16.64s-12.84,0-12.84,0Z"/>
      <rect class="cls-1" x="80.84" y="81.87" width="20.58" height="18.07" transform="translate(-.1 181.71) rotate(-89.8)"/>
    </g>
  </g>
</svg>