<?xml version="1.0" encoding="UTF-8"?>
<svg id="Capa_2" data-name="Capa 2" xmlns="http://www.w3.org/2000/svg" width="246.72" height="223.58" viewBox="0 0 246.72 223.58">
  <defs>
    <style>
      .cls-1 {
        fill: #794d3b;
      }
    </style>
  </defs>
  <g id="Capa_1-2" data-name="Capa 1">
    <g id="_5" data-name="5">
      <path class="cls-1" d="M176.15,103.81l-8.98.42c-1.01,3.99-.77,7.52.85,11.06l-12.88.1v11.07s-65.79-.04-65.79-.04c.56-4.07.73-7.23.36-10.88l-11.52-.21-.09-11.31-9.29.04-.37-39.91,9.55-.18c.24-3.6-.93-7.39.27-10.71.96-2.67,2.43-4.78,1.51-8.3l8.99-.24c1.11-4.77-.61-8.94-.68-13.59l-.2-14.01-14.56-.26.06-16.73,16.74-.14.11,15.86,10.76.22-.07,17.76,41.85-.07.09-17.71,10.89-.31.24-15.58,17.27-.03-.02,16.82-15.05.14-.33,14.93c-.1,4.44-1.82,8.42-.54,12.83l10.04.1c-2.46,5.14,2.85,8.6,1.12,18.08l9.58.27.08,40.5ZM107.71,93.04l-.18-20.93c-.02-1.83-1.24-4.34-2.41-4.38l-5.02-.2c-3.03-.12-8.46-.1-8.53,3.82l-.37,21.33c5.64,1.75,10.72,1.73,16.51.36ZM153.15,92.86l-.46-22.34c-.09-4.24-12.5-3.63-13.84-2.38-.78.73-1.81,2.42-1.8,3.98l.07,21.17c5.27,1,10.69,1.26,16.03-.43Z"/>
      <path class="cls-1" d="M219.74,193.87l-25.57.29-.1-10.05-7.7-.04-.74-4.57-7.99-.14.44-43.2,9.08-.18.45-8.35c1.13-.39,2.35-1.24,2.53-2.03.3-1.36.13-2.81-1.54-3.22-1.21-.29-2.11,1.15-3.24,1.91-2.92,1.86-6.68.92-10.36,1.51-2.02-6.21,3.77-11.33,2.17-20.7,3.04-.86,5.57-.49,8.56-.38l.41-12.85,8.22-.52.28-9.81,10.45-.35.19-8.83,21.8-.07.6,9.35c3.06-.46,5.46-1.51,8.21-1.22,1.54,3.69.5,7.3.71,11.22l10.07-.11.05,25.69-9.25.29-.37,10.52-10.2.46c.28,3.3.4,5.55-.23,8.26l-19.98.1.27,9.47,12.67.17.43,10.38h10.63s-.12,26.08-.12,26.08l-10.53.17-.3,10.75Z"/>
      <path class="cls-1" d="M53.77,184.31l-.41,9.92-26.28.18-.2-10.93-10.76-.4-.16-25.59c2.92-.99,5.96-.41,9.58-.49l.39-10.42,13.09-.3-.06-9.34-19.2.62c-.91-3.15-.26-6.06-.35-9.42l-9.75.02.29-10.59-9.81-.2-.13-25.51,9.51-.45.22-9.9,8.89-.11.21-9.56,5.63.71,14.81-.27.16,8.94,10.49.39.42,9.58,9.9.25.03,12.73,8.68.38c-.47,3.19-1.15,6.42-.31,9.18l2.57,2.37.2,9.04c-5.11.19-9.37,0-13.67-1.82l-2.13,1.76c-.58.48.95,1.6,1.95,1.77.9,2.48.38,5.41.55,8.49l10.16.74-.13,43.36-6.94-.16c-.66,1.41-.75,2.77-1.02,4.62l-6.42.42Z"/>
      <polygon class="cls-1" points="169.26 158.92 155.16 159.06 155.59 168.79 90.1 168.64 89.76 158.98 76.66 158.64 76.65 136.51 89.75 136.22 90.19 147.01 154.29 146.98 154.6 136.36 169.17 136.07 169.26 158.92"/>
      <path class="cls-1" d="M140.65,200.38l-.38,10.55-10.88.16.03,12.49h-13.81s-.26-12.52-.26-12.52l-10.2-.09-.32-10.54-14.6-.42.06-9.45-12.09-.42c1.94-9.68-5.1-9.45-4.23-13.35.29-1.31,1.75-3.97,3.67-3.09.44.76-.1,4.45,1.58,4.49l11.67.29.44,10.92,62.36.07.02-10.92,12.53-.24.53-5.4c3.32-.02,3.36,1.9,3.66,3.6.45,2.54-1.32,3.38-3.06,4.82-1.55,2.38-.69,5.89-1.07,9.01l-11.39.23.06,9.61-14.33.22Z"/>
    </g>
  </g>
</svg>