<?xml version="1.0" encoding="UTF-8"?>
<svg id="Capa_2" data-name="Capa 2" xmlns="http://www.w3.org/2000/svg" width="176.68" height="232.84" viewBox="0 0 176.68 232.84">
  <defs>
    <style>
      .cls-1 {
        fill: #794d3b;
      }
    </style>
  </defs>
  <g id="Capa_1-2" data-name="Capa 1">
    <path id="_7" data-name="7" class="cls-1" d="M99.27,232.31l-21.46.53-.06-12.38-41.53-.06-.31-11.44-14.11-.07-.05-11.23-11-.08-.03-12.77-10.71-.12.2-38.63,38.36-.1.16,9.91,8.94.13.14,8.77,10.12.1.57,10.19,10.13.58-.04,20.12,10.12-.09.09-59.68-20.13-.09-.32-8.7-13.82-.34-.09-12.15-12.28-.62-.11-17.14-11.25-.21-.06-81.96,20.28-.05.29,10.58c2.22.59,4.06.41,6.98.35l.16,11.75,8.45.13.14-11.62,10.86-.13.34-13.23,9.24-.08.11-12.48h22.12s.48,10.61.48,10.61l8.26-.09.31,15.26,11.21.1.18,11.6,7.53.11.11-11.65,7.48-.38.17-10.68h19.87s-.04,81.62-.04,81.62l-11.48.43-.1,17.15-11.67.28-.32,12.56-14.88-.04-.14,9.03-18.96.1.56,59.65c3.67.58,6.29.48,9.6.11l.1-20.04,10.01-.6.62-10.22,10.25-.11.33-8.57,8.09-.68.1-9.44,39.32-.18v38.81s-10.91.21-10.91.21l.03,12.4-11.1.42-.12,11.11-13.84.11-.16,11.29-41.35.18.03,11.87Z"/>
  </g>
</svg>