<?xml version="1.0" encoding="UTF-8"?>
<svg id="Capa_2" data-name="Capa 2" xmlns="http://www.w3.org/2000/svg" width="171.55" height="228.22" viewBox="0 0 171.55 228.22">
  <defs>
    <style>
      .cls-1 {
        fill: #794d3b;
      }
    </style>
  </defs>
  <g id="Capa_1-2" data-name="Capa 1">
    <path id="_8" data-name="8" class="cls-1" d="M98.53,228.21h-25.32s-.16-12.95-.16-12.95l-15.94-.1-.29-10.62-19.46-.26.05-13.98-11.54-.18-.04-18.54-12.66-.33.07-60.68-13-.15-.24-41.53,12.79-.14.22-13.31,12.76-.02.22-12.13,47.05-.1-.07-22.93,9.81-.31.17-9.67,10.1-.19.2-10.09,23.04.12.1,22.83-16.31.17-.42,6.82c-1.54,4.44-2.33,8.53-1.32,13.35h46.75s.12,11.96.12,11.96l13.6.17.13,13.13,12.55.08.05,41.78-13.5.17.04,60.58-11.82.25-.08,18.85-11.97.12-.09,13.86-18.95.05-.46,10.98-16.04.18-.15,12.76ZM41.44,80.07v-16.49s-14.23.02-14.23.02c-.2,5.35-.84,10.64.65,16.17l13.58.3ZM73.21,80.11l-.08-16.55-15.53.18v13.41c.01,1.94,1.77,3.18,3.64,3.15l11.98-.19ZM109.5,80.22l-.16-16.56-17.76.04-.08,13.5c-.01,1.97,1.84,3.11,3.69,3.1l14.31-.07ZM143.93,79.7l-.51-16.06-16.2.39.23,15.24c5.53,1.48,11.21,1.22,16.48.43ZM13.59,80.5l-.04,18.66,13.49.03.04-18.66-13.49-.03ZM57.41,98.75l.07-18.17-15.46-.1.13,18.67-14.88.03.04,10.15,14.66-.09.14-10.12,14.57.04c.24,0,.53-.17.73-.42ZM91.08,98.72l-.22-18-17.24.02-.3,18.52h-15.48s-.39.64-.39.64l.19,9.4h15.44s.16-10.05.16-10.05h17.44s.4-.52.4-.52ZM127.16,98.74v-12.53c.02-2.78-2.03-5.73-4.9-5.68l-12.6.19.04,18.29,16.94.17.52-.44ZM127.18,99.87l.05,9.49h16.67s.18-10.22.18-10.22l14.1.04v-18.68s-13.95.08-13.95.08l-.03,18.65-16.41.05-.6.59ZM91.83,99.32l-.7.53.13,9.44,17.87.02.04-10h-17.34ZM48.69,178.82l-.43-7.41-10.23-.2-.54-14.93-.07-22.91-11.1-.07.29,38.03c2.23-.41,4.18-.21,4.41.64l.74,2.74c1.62,1.47,3.96,1,6,.89l.46,14.01c3.3-.14,8.03.99,11.03-.5,3.06-1.83-.4-7.44-.56-10.28Z"/>
  </g>
</svg>