<?xml version="1.0" encoding="UTF-8"?>
<svg id="Capa_2" data-name="Capa 2" xmlns="http://www.w3.org/2000/svg" width="186.86" height="137.46" viewBox="0 0 186.86 137.46">
  <defs>
    <style>
      .cls-1 {
        fill: #794d3b;
      }
    </style>
  </defs>
  <g id="Capa_2-2" data-name="Capa 2">
    <g>
      <path class="cls-1" d="M8.44,93.4l-8.44-.1.02-46.53,8.36-.07.08-10.07h40.24s.03-7.48.03-7.48l8.57-.03.08-7.2,8.4-.02.07-6.98,8,.02.05-7.48h7.74s.02-7.44.02-7.44l17.16.03v137.43s-17.12,0-17.12,0l-.05-7.07-7.77-.04-.04-7.37-8.05-.04v-6.92s-8.43-.01-8.43-.01v-7.02s-8.62,0-8.62,0v-7.02s-40.22-.02-40.22-.02l-.06-8.54ZM81.57,86.34v15.58s7.86-.01,7.86-.01V36.71s-7.86,0-7.86,0v16.47s-7.73.02-7.73.02v33.04s7.74.1,7.74.1ZM31.86,52.69h-14.84s0,34.39,0,34.39h14.84s0-34.39,0-34.39Z"/>
      <path class="cls-1" d="M186.84,94.11l.02,16.98-15.97.03-.05-13.1-10.09-.07-.11-11.07-9.42-.1-.03-12.5h-11.66s-.02,11.82-.02,11.82c0,.54-.51.76-.99.76l-8.71.03-.04,11.03-10.42.09-.05,13.02-15.44.06v-16.98s12.08-.05,12.08-.05l.04-10.49,11.12-.06.18-9.65,11.74-.1v-10.22s-11.81-.1-11.81-.1l-.05-8.59-11.19-.09-.05-10.17-3.35.03-8.72-.13.04-18.08,3.77-.08c1.7-.04,3.29-.04,4.94-.01l6.67.1.05,13.64,10.42.09.05,9.9c1.65.38,3.16.23,4.76.21l4.92-.06.04,11,11.66-.02v-10.77s7.32-.06,7.32-.06c.69,0,1.34.03,2.11-.14l.09-10.04,11.05-.13.08-13.63,15.01.03v18.06s-12.04.17-12.04.17l-.07,10.1-11.26.04-.06,8.64-11.73.1-.05,10.26,11.79.03.04,9.63,11.27.11.04,10.49,12.04.02Z"/>
    </g>
  </g>
</svg>